<?xml version="1.0" encoding="UTF-8" standalone="no"?>
<!-- Created with Inkscape (http://www.inkscape.org/) -->

<svg
   xmlns:dc="http://purl.org/dc/elements/1.1/"
   xmlns:cc="http://creativecommons.org/ns#"
   xmlns:rdf="http://www.w3.org/1999/02/22-rdf-syntax-ns#"
   xmlns:svg="http://www.w3.org/2000/svg"
   xmlns="http://www.w3.org/2000/svg"
   xmlns:sodipodi="http://sodipodi.sourceforge.net/DTD/sodipodi-0.dtd"
   xmlns:inkscape="http://www.inkscape.org/namespaces/inkscape"
   width="640"
   height="640"
   id="svg2"
   version="1.1"
   inkscape:version="0.47 r22583"
   sodipodi:docname="MeteoSet_Precipitation-Rain-3 (nbg).svg">
  <defs
     id="defs4">
    <inkscape:perspective
       sodipodi:type="inkscape:persp3d"
       inkscape:vp_x="0 : 526.18109 : 1"
       inkscape:vp_y="0 : 1000 : 0"
       inkscape:vp_z="744.09448 : 526.18109 : 1"
       inkscape:persp3d-origin="372.04724 : 350.78739 : 1"
       id="perspective10" />
    <inkscape:perspective
       id="perspective5443"
       inkscape:persp3d-origin="0.5 : 0.33333333 : 1"
       inkscape:vp_z="1 : 0.5 : 1"
       inkscape:vp_y="0 : 1000 : 0"
       inkscape:vp_x="0 : 0.5 : 1"
       sodipodi:type="inkscape:persp3d" />
  </defs>
  <sodipodi:namedview
     id="base"
     pagecolor="#ffffff"
     bordercolor="#666666"
     borderopacity="1.0"
     inkscape:pageopacity="0.0"
     inkscape:pageshadow="2"
     inkscape:zoom="0.58446795"
     inkscape:cx="320"
     inkscape:cy="320"
     inkscape:document-units="px"
     inkscape:current-layer="layer1"
     showgrid="false"
     inkscape:window-width="1366"
     inkscape:window-height="749"
     inkscape:window-x="-4"
     inkscape:window-y="-4"
     inkscape:window-maximized="1" />
  <metadata
     id="metadata7">
    <rdf:RDF>
      <cc:Work
         rdf:about="">
        <dc:format>image/svg+xml</dc:format>
        <dc:type
           rdf:resource="http://purl.org/dc/dcmitype/StillImage" />
        <dc:title></dc:title>
      </cc:Work>
    </rdf:RDF>
  </metadata>
  <g
     inkscape:label="Ebene 1"
     inkscape:groupmode="layer"
     id="layer1"
     transform="translate(0,-412.36218)">
    <path
       style="fill:#5599ff;fill-opacity:1;stroke:#aaccff;stroke-width:10;stroke-linecap:round;stroke-linejoin:round;stroke-miterlimit:4;stroke-opacity:1;stroke-dasharray:none;stroke-dashoffset:0"
       d="m 180.62217,620.74179 c 3.54536,23.72288 -13.44403,24.3014 -28.79922,49.10989 0,11.31484 9.16766,20.4825 20.4825,20.4825 35.51541,-3.08731 19.78272,-50.54343 8.31672,-69.59239 z"
       id="path4775-1"
       sodipodi:nodetypes="cccc" />
    <path
       sodipodi:nodetypes="cccc"
       id="path5967"
       d="m 330.64107,716.31835 c 3.54536,23.72288 -13.44403,24.3014 -28.79922,49.10989 0,11.31484 9.16766,20.4825 20.4825,20.4825 35.51541,-3.08731 19.78272,-50.54343 8.31672,-69.59239 z"
       style="fill:#5599ff;fill-opacity:1;stroke:#aaccff;stroke-width:10;stroke-linecap:round;stroke-linejoin:round;stroke-miterlimit:4;stroke-opacity:1;stroke-dasharray:none;stroke-dashoffset:0" />
    <path
       style="fill:#5599ff;fill-opacity:1;stroke:#aaccff;stroke-width:10;stroke-linecap:round;stroke-linejoin:round;stroke-miterlimit:4;stroke-opacity:1;stroke-dasharray:none;stroke-dashoffset:0"
       d="m 457.67321,646.14822 c 3.54536,23.72288 -13.44403,24.3014 -28.79922,49.10989 0,11.31484 9.16766,20.4825 20.4825,20.4825 35.51541,-3.08731 19.78272,-50.54343 8.31672,-69.59239 z"
       id="path5969"
       sodipodi:nodetypes="cccc" />
    <path
       sodipodi:nodetypes="cccc"
       id="path5971"
       d="m 527.84334,739.30512 c 3.54536,23.72288 -13.44403,24.3014 -28.79922,49.10989 0,11.31484 9.16766,20.4825 20.4825,20.4825 35.51541,-3.08731 19.78272,-50.54343 8.31672,-69.59239 z"
       style="fill:#5599ff;fill-opacity:1;stroke:#aaccff;stroke-width:10;stroke-linecap:round;stroke-linejoin:round;stroke-miterlimit:4;stroke-opacity:1;stroke-dasharray:none;stroke-dashoffset:0" />
    <path
       style="fill:#5599ff;fill-opacity:1;stroke:#aaccff;stroke-width:10;stroke-linecap:round;stroke-linejoin:round;stroke-miterlimit:4;stroke-opacity:1;stroke-dasharray:none;stroke-dashoffset:0"
       d="m 427.42746,816.73423 c 3.54536,23.72288 -13.44403,24.3014 -28.79922,49.10989 0,11.31484 9.16766,20.4825 20.4825,20.4825 35.51541,-3.08731 19.78272,-50.54343 8.31672,-69.59239 z"
       id="path5973"
       sodipodi:nodetypes="cccc" />
    <path
       sodipodi:nodetypes="cccc"
       id="path5975"
       d="m 518.1647,896.583 c 3.54536,23.72288 -13.44403,24.3014 -28.79922,49.10989 0,11.31484 9.16766,20.4825 20.4825,20.4825 35.51541,-3.08731 19.78272,-50.54343 8.31672,-69.59239 z"
       style="fill:#5599ff;fill-opacity:1;stroke:#aaccff;stroke-width:10;stroke-linecap:round;stroke-linejoin:round;stroke-miterlimit:4;stroke-opacity:1;stroke-dasharray:none;stroke-dashoffset:0" />
    <path
       style="fill:#5599ff;fill-opacity:1;stroke:#aaccff;stroke-width:10;stroke-linecap:round;stroke-linejoin:round;stroke-miterlimit:4;stroke-opacity:1;stroke-dasharray:none;stroke-dashoffset:0"
       d="m 285.87737,831.25219 c 3.54536,23.72288 -13.44403,24.3014 -28.79922,49.10989 0,11.31484 9.16766,20.4825 20.4825,20.4825 35.51541,-3.08731 19.78272,-50.54343 8.31672,-69.59239 z"
       id="path5977"
       sodipodi:nodetypes="cccc" />
    <path
       sodipodi:nodetypes="cccc"
       id="path5979"
       d="m 146.74694,755.03291 c 3.54536,23.72288 -13.44403,24.3014 -28.79922,49.10989 0,11.31484 9.16766,20.4825 20.4825,20.4825 35.51541,-3.08731 19.78272,-50.54343 8.31672,-69.59239 z"
       style="fill:#5599ff;fill-opacity:1;stroke:#aaccff;stroke-width:10;stroke-linecap:round;stroke-linejoin:round;stroke-miterlimit:4;stroke-opacity:1;stroke-dasharray:none;stroke-dashoffset:0" />
    <path
       style="fill:#5599ff;fill-opacity:1;stroke:#aaccff;stroke-width:10;stroke-linecap:round;stroke-linejoin:round;stroke-miterlimit:4;stroke-opacity:1;stroke-dasharray:none;stroke-dashoffset:0"
       d="m 184.25167,905.05181 c 3.54536,23.72288 -13.44403,24.3014 -28.79922,49.10989 0,11.31484 9.16766,20.4825 20.4825,20.4825 35.51541,-3.08731 19.78272,-50.54343 8.31672,-69.59239 z"
       id="path5981"
       sodipodi:nodetypes="cccc" />
  </g>
</svg>
